<svg width="300" height="300" viewBox="0 0 300 300" fill="none" xmlns="http://www.w3.org/2000/svg">
<path d="M69.853 163L74.893 137.8H79.573L74.533 163H69.853ZM86.461 163L90.709 141.76H82.357L83.149 137.8H104.497L103.705 141.76H95.353L91.141 163H86.461ZM124.151 163.252C122.543 163.252 121.151 162.964 119.975 162.388C118.799 161.788 117.911 160.912 117.311 159.76C116.711 158.584 116.435 157.132 116.483 155.404C116.531 153.004 116.963 150.916 117.779 149.14C118.595 147.364 119.735 145.996 121.199 145.036C122.687 144.052 124.451 143.56 126.491 143.56C128.075 143.56 129.503 143.896 130.775 144.568C132.047 145.216 133.055 146.176 133.799 147.448C134.567 148.696 134.951 150.208 134.951 151.984C134.951 153.616 134.675 155.116 134.123 156.484C133.595 157.852 132.839 159.04 131.855 160.048C130.871 161.056 129.719 161.848 128.399 162.424C127.103 162.976 125.687 163.252 124.151 163.252ZM111.119 169.984L116.339 143.776H120.623L119.759 148.168L118.571 153.28L117.923 158.428L115.619 169.984H111.119ZM123.791 159.4C125.087 159.4 126.227 159.1 127.211 158.5C128.195 157.876 128.975 157.024 129.551 155.944C130.127 154.864 130.415 153.616 130.415 152.2C130.415 150.712 129.971 149.536 129.083 148.672C128.195 147.808 126.947 147.376 125.339 147.376C124.067 147.376 122.927 147.688 121.919 148.312C120.935 148.912 120.155 149.752 119.579 150.832C119.003 151.912 118.715 153.16 118.715 154.576C118.715 156.064 119.159 157.24 120.047 158.104C120.935 158.968 122.183 159.4 123.791 159.4ZM137.202 163L141.018 143.776H145.302L144.222 149.248L143.826 147.664C144.714 146.104 145.842 145.036 147.21 144.46C148.578 143.86 150.246 143.56 152.214 143.56L151.386 147.844C151.194 147.796 151.014 147.772 150.846 147.772C150.678 147.748 150.486 147.736 150.27 147.736C148.518 147.736 147.066 148.204 145.914 149.14C144.762 150.052 143.994 151.516 143.61 153.532L141.702 163H137.202ZM161.472 163.252C159.6 163.252 157.956 162.904 156.54 162.208C155.148 161.488 154.068 160.504 153.3 159.256C152.532 157.984 152.148 156.496 152.148 154.792C152.148 152.632 152.64 150.712 153.624 149.032C154.608 147.328 155.952 145.996 157.656 145.036C159.384 144.052 161.352 143.56 163.56 143.56C165.456 143.56 167.1 143.908 168.492 144.604C169.908 145.276 171 146.248 171.768 147.52C172.536 148.768 172.92 150.256 172.92 151.984C172.92 154.12 172.428 156.04 171.444 157.744C170.46 159.448 169.104 160.792 167.376 161.776C165.672 162.76 163.704 163.252 161.472 163.252ZM161.76 159.4C163.056 159.4 164.196 159.1 165.18 158.5C166.164 157.876 166.944 157.024 167.52 155.944C168.096 154.864 168.384 153.616 168.384 152.2C168.384 150.712 167.94 149.536 167.052 148.672C166.164 147.808 164.916 147.376 163.308 147.376C162.036 147.376 160.896 147.688 159.888 148.312C158.904 148.912 158.124 149.752 157.548 150.832C156.972 151.912 156.684 153.16 156.684 154.576C156.684 156.088 157.128 157.276 158.016 158.14C158.904 158.98 160.152 159.4 161.76 159.4ZM175.747 163L179.851 142.552C180.259 140.536 181.111 138.952 182.407 137.8C183.703 136.624 185.431 136.036 187.591 136.036C188.407 136.036 189.187 136.132 189.931 136.324C190.675 136.516 191.299 136.804 191.803 137.188L189.967 140.464C189.319 139.936 188.527 139.672 187.591 139.672C186.655 139.672 185.911 139.936 185.359 140.464C184.807 140.992 184.411 141.796 184.171 142.876L183.703 145.036L183.487 146.872L180.247 163H175.747ZM175.711 147.52L176.431 143.92H189.211L188.491 147.52H175.711ZM188.563 163L192.379 143.776H196.879L193.063 163H188.563ZM195.655 140.608C194.839 140.608 194.179 140.368 193.675 139.888C193.195 139.384 192.955 138.784 192.955 138.088C192.955 137.272 193.231 136.588 193.783 136.036C194.359 135.484 195.103 135.208 196.015 135.208C196.807 135.208 197.455 135.448 197.959 135.928C198.463 136.384 198.715 136.948 198.715 137.62C198.715 138.508 198.439 139.228 197.887 139.78C197.335 140.332 196.591 140.608 195.655 140.608ZM198.972 163L204.3 136.288H208.8L203.472 163H198.972ZM219.026 163.252C217.106 163.252 215.438 162.904 214.022 162.208C212.606 161.488 211.502 160.504 210.71 159.256C209.942 157.984 209.558 156.496 209.558 154.792C209.558 152.608 210.038 150.676 210.998 148.996C211.958 147.316 213.266 145.996 214.922 145.036C216.602 144.052 218.51 143.56 220.646 143.56C222.446 143.56 224.006 143.896 225.326 144.568C226.646 145.24 227.666 146.212 228.386 147.484C229.13 148.732 229.502 150.232 229.502 151.984C229.502 152.44 229.478 152.908 229.43 153.388C229.382 153.868 229.31 154.312 229.214 154.72H212.906L213.41 151.732H227.09L225.254 152.74C225.446 151.516 225.362 150.496 225.002 149.68C224.642 148.864 224.066 148.24 223.274 147.808C222.482 147.376 221.534 147.16 220.43 147.16C219.11 147.16 217.958 147.472 216.974 148.096C216.014 148.696 215.27 149.56 214.742 150.688C214.214 151.792 213.95 153.088 213.95 154.576C213.95 156.136 214.394 157.336 215.282 158.176C216.194 159.016 217.598 159.436 219.494 159.436C220.574 159.436 221.606 159.268 222.59 158.932C223.574 158.572 224.39 158.08 225.038 157.456L226.91 160.588C225.902 161.476 224.702 162.148 223.31 162.604C221.942 163.036 220.514 163.252 219.026 163.252Z" fill="#222222"/>
<path d="M275 164C275 178.445 271.767 192.749 265.485 206.095C259.203 219.441 249.996 231.567 238.388 241.782C226.781 251.996 213.001 260.099 197.835 265.627C182.67 271.155 166.415 274 150 274C133.585 274 117.33 271.155 102.165 265.627C86.9989 260.099 73.219 251.996 61.6116 241.782C50.0043 231.567 40.7969 219.441 34.5151 206.095C28.2332 192.749 25 178.445 25 164L35.3215 164C35.3215 177.253 38.2878 190.375 44.0509 202.619C49.814 214.863 58.2612 225.988 68.9101 235.359C79.559 244.73 92.201 252.164 106.114 257.235C120.028 262.307 134.94 264.917 150 264.917C165.06 264.917 179.972 262.307 193.886 257.235C207.799 252.164 220.441 244.73 231.09 235.359C241.739 225.988 250.186 214.863 255.949 202.619C261.712 190.375 264.678 177.253 264.678 164H275Z" fill="#33bee3"/>
<path d="M25 135C25 120.555 28.2332 106.251 34.5151 92.9048C40.7969 79.559 50.0043 67.4327 61.6117 57.2183C73.219 47.0038 86.9989 38.9013 102.165 33.3733C117.33 27.8452 133.585 25 150 25C166.415 25 182.67 27.8452 197.835 33.3733C213.001 38.9013 226.781 47.0038 238.388 57.2183C249.996 67.4327 259.203 79.559 265.485 92.9048C271.767 106.251 275 120.555 275 135L264.678 135C264.678 121.747 261.712 108.625 255.949 96.3807C250.186 84.1369 241.739 73.0119 231.09 63.6409C220.441 54.2699 207.799 46.8364 193.886 41.7648C179.972 36.6933 165.06 34.083 150 34.083C134.94 34.083 120.028 36.6932 106.114 41.7648C92.201 46.8364 79.559 54.2699 68.9101 63.6409C58.2612 73.0119 49.8141 84.1369 44.0509 96.3807C38.2878 108.625 35.3215 121.747 35.3215 135L25 135Z" fill="#33bee3"/>
</svg>
