<svg width="18" height="18" viewBox="0 0 800 800" fill="none" xmlns="http://www.w3.org/2000/svg">
<path fill-rule="evenodd" clip-rule="evenodd" d="M150 300C140.795 300 133.333 307.462 133.333 316.667V700H100V316.667C100 289.052 122.386 266.667 150 266.667H350C377.615 266.667 400 289.052 400 316.667V700H366.667V316.667C366.667 307.462 359.205 300 350 300H150Z" fill="#2c96b3"/>
<path fill-rule="evenodd" clip-rule="evenodd" d="M650 333.333H533.333V300H650C677.615 300 700 322.385 700 350V700H666.667V350C666.667 340.795 659.205 333.333 650 333.333Z" fill="#2c96b3"/>
<path fill-rule="evenodd" clip-rule="evenodd" d="M300 100C290.795 100 283.333 107.462 283.333 116.667V283.333H250V116.667C250 89.0525 272.385 66.6666 300 66.6666H500C527.615 66.6666 550 89.0525 550 116.667V700H516.667V116.667C516.667 107.462 509.205 100 500 100H300Z" fill="#2c96b3"/>
<path fill-rule="evenodd" clip-rule="evenodd" d="M733.333 733.333H66.6667V700H733.333V733.333Z" fill="#2c96b3"/>
<path fill-rule="evenodd" clip-rule="evenodd" d="M333.333 133.333C324.128 133.333 316.667 140.795 316.667 150V183.333C316.667 192.538 324.128 200 333.333 200H366.667C375.872 200 383.333 192.538 383.333 183.333V150C383.333 140.795 375.872 133.333 366.667 133.333H333.333Z" fill="#2c96b3"/>
<path fill-rule="evenodd" clip-rule="evenodd" d="M183.333 333.333C174.128 333.333 166.667 340.795 166.667 350V383.333C166.667 392.538 174.128 400 183.333 400H216.667C225.872 400 233.333 392.538 233.333 383.333V350C233.333 340.795 225.872 333.333 216.667 333.333H183.333Z" fill="#2c96b3"/>
<path fill-rule="evenodd" clip-rule="evenodd" d="M283.333 333.333C274.128 333.333 266.667 340.795 266.667 350V383.333C266.667 392.538 274.128 400 283.333 400H316.667C325.872 400 333.333 392.538 333.333 383.333V350C333.333 340.795 325.872 333.333 316.667 333.333H283.333Z" fill="#2c96b3"/>
<path fill-rule="evenodd" clip-rule="evenodd" d="M333.333 233.333C324.128 233.333 316.667 240.795 316.667 250V283.333C316.667 292.538 324.128 300 333.333 300H366.667C375.872 300 383.333 292.538 383.333 283.333V250C383.333 240.795 375.872 233.333 366.667 233.333H333.333Z" fill="#2c96b3"/>
<path fill-rule="evenodd" clip-rule="evenodd" d="M183.333 433.333C174.128 433.333 166.667 440.795 166.667 450V483.333C166.667 492.538 174.128 500 183.333 500H216.667C225.872 500 233.333 492.538 233.333 483.333V450C233.333 440.795 225.872 433.333 216.667 433.333H183.333Z" fill="#2c96b3"/>
<path fill-rule="evenodd" clip-rule="evenodd" d="M183.333 533.333C174.128 533.333 166.667 540.795 166.667 550V583.333C166.667 592.538 174.128 600 183.333 600H216.667C225.872 600 233.333 592.538 233.333 583.333V550C233.333 540.795 225.872 533.333 216.667 533.333H183.333Z" fill="#2c96b3"/>
<path fill-rule="evenodd" clip-rule="evenodd" d="M283.333 433.333C274.128 433.333 266.667 440.795 266.667 450V483.333C266.667 492.538 274.128 500 283.333 500H316.667C325.872 500 333.333 492.538 333.333 483.333V450C333.333 440.795 325.872 433.333 316.667 433.333H283.333Z" fill="#2c96b3"/>
<path fill-rule="evenodd" clip-rule="evenodd" d="M283.333 533.333C274.128 533.333 266.667 540.795 266.667 550V583.333C266.667 592.538 274.128 600 283.333 600H316.667C325.872 600 333.333 592.538 333.333 583.333V550C333.333 540.795 325.872 533.333 316.667 533.333H283.333Z" fill="#2c96b3"/>
<path fill-rule="evenodd" clip-rule="evenodd" d="M433.333 133.333C424.128 133.333 416.667 140.795 416.667 150V183.333C416.667 192.538 424.128 200 433.333 200H466.667C475.872 200 483.333 192.538 483.333 183.333V150C483.333 140.795 475.872 133.333 466.667 133.333H433.333Z" fill="#2c96b3"/>
<path fill-rule="evenodd" clip-rule="evenodd" d="M433.333 233.333C424.128 233.333 416.667 240.795 416.667 250V283.333C416.667 292.538 424.128 300 433.333 300H466.667C475.872 300 483.333 292.538 483.333 283.333V250C483.333 240.795 475.872 233.333 466.667 233.333H433.333Z" fill="#2c96b3"/>
<path fill-rule="evenodd" clip-rule="evenodd" d="M433.333 333.333C424.128 333.333 416.667 340.795 416.667 350V383.333C416.667 392.538 424.128 400 433.333 400H466.667C475.872 400 483.333 392.538 483.333 383.333V350C483.333 340.795 475.872 333.333 466.667 333.333H433.333Z" fill="#2c96b3"/>
<path fill-rule="evenodd" clip-rule="evenodd" d="M433.333 433.333C424.128 433.333 416.667 440.795 416.667 450V483.333C416.667 492.538 424.128 500 433.333 500H466.667C475.872 500 483.333 492.538 483.333 483.333V450C483.333 440.795 475.872 433.333 466.667 433.333H433.333Z" fill="#2c96b3"/>
<path fill-rule="evenodd" clip-rule="evenodd" d="M583.333 366.667C574.128 366.667 566.667 374.128 566.667 383.333V416.667C566.667 425.872 574.128 433.333 583.333 433.333H616.667C625.872 433.333 633.333 425.872 633.333 416.667V383.333C633.333 374.128 625.872 366.667 616.667 366.667H583.333Z" fill="#2c96b3"/>
<path fill-rule="evenodd" clip-rule="evenodd" d="M583.333 466.667C574.128 466.667 566.667 474.128 566.667 483.333V516.667C566.667 525.872 574.128 533.333 583.333 533.333H616.667C625.872 533.333 633.333 525.872 633.333 516.667V483.333C633.333 474.128 625.872 466.667 616.667 466.667H583.333Z" fill="#2c96b3"/>
<path fill-rule="evenodd" clip-rule="evenodd" d="M583.333 566.667C574.128 566.667 566.667 574.128 566.667 583.333V616.667C566.667 625.872 574.128 633.333 583.333 633.333H616.667C625.872 633.333 633.333 625.872 633.333 616.667V583.333C633.333 574.128 625.872 566.667 616.667 566.667H583.333Z" fill="#2c96b3"/>
<path fill-rule="evenodd" clip-rule="evenodd" d="M433.333 533.333C424.128 533.333 416.667 540.795 416.667 550V583.333C416.667 592.538 424.128 600 433.333 600H466.667C475.872 600 483.333 592.538 483.333 583.333V550C483.333 540.795 475.872 533.333 466.667 533.333H433.333Z" fill="#2c96b3"/>
</svg>
