<svg width="18" height="18" viewBox="0 0 18 18" fill="none" xmlns="http://www.w3.org/2000/svg">
<path d="M9.41523 6.01339C8.9813 5.57788 8.45297 5.23377 7.86562 5.01039C7.5883 5.31856 7.39948 5.69375 7.32062 6.10058C7.29918 6.21027 7.28631 6.32024 7.28041 6.42968C7.32868 6.44627 7.37589 6.46399 7.42205 6.4841C7.93375 6.70105 8.37306 7.06421 8.68093 7.52174C8.92818 7.88754 9.09232 8.31103 9.14759 8.76992C9.16207 8.88443 9.16903 9.00111 9.16903 9.12019C9.16903 9.51766 9.08912 9.89208 8.94484 10.2337C8.76569 10.6551 8.48837 11.0278 8.14026 11.3178C8.06625 11.3802 7.98845 11.4382 7.90802 11.4926C7.45049 11.8016 6.90445 11.9807 6.30851 11.9807C5.91212 11.9807 5.53827 11.9006 5.19606 11.7565C4.68327 11.5396 4.24558 11.1762 3.93663 10.7189C3.62873 10.2621 3.44957 9.71478 3.44957 9.12019C3.44957 8.72299 3.52843 8.34914 3.67323 8.00665C3.86796 7.54698 4.18173 7.14578 4.57598 6.84621C4.56845 6.74239 4.56522 6.63861 4.56522 6.53483C4.56522 6.00169 4.64889 5.48137 4.80822 4.9895C4.19833 5.2113 3.65123 5.56396 3.20281 6.01346C2.40789 6.80599 1.9144 7.90905 1.91602 9.12022C1.91444 10.3317 2.40793 11.4347 3.20281 12.2275C3.8647 12.8904 4.74223 13.3418 5.71845 13.473V14.8424H3.68287V16.0219H5.71845V18H6.8985V16.0218H8.9357V14.8423H6.8985V13.4729C7.87528 13.3418 8.75387 12.8904 9.41523 12.2275C9.63623 12.0065 9.8331 11.7624 10.0042 11.4983C10.4467 10.813 10.7036 9.99424 10.7026 9.12019C10.7026 8.91505 10.6881 8.71202 10.6612 8.51409C10.5266 7.54318 10.075 6.67155 9.41523 6.01339Z" fill="#2C96B3"/>
<path d="M12.2699 0V1.17953H14.07L12.2098 3.03971C11.4267 2.44273 10.4854 2.14098 9.54882 2.14182C8.42723 2.14098 7.29816 2.57143 6.44207 3.42914C5.8295 4.04009 5.43582 4.79018 5.25987 5.57789C5.25772 5.58752 5.25667 5.59719 5.25396 5.60524C5.247 5.63583 5.24109 5.66666 5.23522 5.69591C5.22447 5.75276 5.21483 5.80936 5.20573 5.86593C5.19982 5.89999 5.195 5.93568 5.19124 5.96971C5.18428 6.02149 5.17837 6.07458 5.17409 6.12766C5.17141 6.15825 5.16818 6.18912 5.1666 6.21967C5.16554 6.23496 5.16445 6.2505 5.1634 6.26688C5.16069 6.29771 5.15964 6.32936 5.15855 6.35991C5.1564 6.41784 5.15479 6.47684 5.15479 6.53477C5.15479 6.57956 5.1564 6.62435 5.15749 6.6702C5.15964 6.71527 5.16234 6.75977 5.16445 6.80593L5.17141 6.90514C5.17141 6.92153 5.17409 6.93812 5.17514 6.95584C5.26957 7.93579 5.69275 8.89379 6.44207 9.64178C6.89586 10.0959 7.42686 10.4305 7.99168 10.6443C8.16275 10.4557 8.30225 10.2375 8.40255 10.0025C8.50605 9.75607 8.56508 9.49535 8.57686 9.22637C8.19338 9.08852 7.83506 8.86672 7.52611 8.55777C7.24665 8.27698 7.03747 7.95596 6.89854 7.61157C6.79932 7.36829 6.73548 7.11355 6.70757 6.85659C6.68936 6.70451 6.68507 6.55112 6.69203 6.39907C6.69417 6.36124 6.69684 6.32479 6.69899 6.28805C6.70166 6.26098 6.7038 6.23387 6.70862 6.20652C6.70862 6.19604 6.71077 6.1856 6.71186 6.17488C6.71453 6.14886 6.71776 6.12179 6.72258 6.09602C6.72848 6.06062 6.73439 6.02388 6.74135 5.98876C6.77243 5.8281 6.81697 5.67014 6.87597 5.51672C6.88672 5.48856 6.89741 5.46149 6.91031 5.43305C6.92212 5.40355 6.93496 5.37405 6.94891 5.34456C6.96073 5.31506 6.97468 5.28553 6.99022 5.25712C7.00309 5.22791 7.01863 5.19947 7.03529 5.17131C7.11306 5.02703 7.20482 4.88812 7.30993 4.75587C7.33138 4.7288 7.35391 4.70173 7.37592 4.67568C7.42472 4.62016 7.47408 4.56599 7.52716 4.5129C7.59312 4.44691 7.6602 4.3855 7.72991 4.32889C7.95843 4.13902 8.20888 3.99016 8.47171 3.88424C8.98717 3.67534 9.55466 3.62222 10.0959 3.72734C10.6376 3.83245 11.1504 4.09155 11.572 4.51287C11.8526 4.79366 12.0601 5.11467 12.1991 5.45878C12.4093 5.97424 12.4625 6.54064 12.3573 7.08216C12.2511 7.62335 11.9915 8.13642 11.572 8.55777C11.4798 8.64974 11.3832 8.73478 11.2829 8.81012C11.2888 8.9139 11.292 9.01772 11.292 9.12013C11.2937 9.64874 11.2094 10.1698 11.048 10.6655C11.6353 10.453 12.1862 10.1111 12.6555 9.64174C13.5122 8.7865 13.944 7.65742 13.9429 6.53474C13.9439 5.59793 13.642 4.6582 13.0439 3.87373L14.9041 2.01354V3.81445H16.0836V0H12.2699Z" fill="#2C96B3"/>
</svg>
