<svg width="18" height="18" viewBox="0 0 18 18" fill="none" xmlns="http://www.w3.org/2000/svg">
<path d="M17.9763 7.17458C17.9448 7.0987 17.8844 7.03825 17.8085 7.00675C17.7706 6.99108 17.7303 6.98279 17.6899 6.98279H14.5865C14.4151 6.98279 14.2762 7.12174 14.2762 7.2931C14.2762 7.46447 14.4151 7.60342 14.5865 7.60342H16.9407L14.5222 10.0219C14.5097 10.0345 14.5039 10.0504 14.494 10.0644C13.7123 9.31107 12.6519 8.84483 11.483 8.84483C9.08725 8.84483 7.13818 10.7939 7.13818 13.1897C7.13818 15.5855 9.08725 17.5346 11.483 17.5346C13.8788 17.5346 15.8279 15.5855 15.8279 13.1897C15.8279 12.1766 15.4766 11.2457 14.8932 10.5059C14.9167 10.4925 14.9411 10.4809 14.9611 10.4608L17.3796 8.04239V10.3966C17.3796 10.568 17.5185 10.7069 17.6899 10.7069C17.8612 10.7069 18.0002 10.568 18.0002 10.3966V7.29318C18.0002 7.2527 17.992 7.21245 17.9763 7.17458ZM15.2071 13.1897C15.2071 15.2431 13.5364 16.9138 11.483 16.9138C9.42952 16.9138 7.75881 15.2431 7.75881 13.1897C7.75881 11.1362 9.42952 9.46553 11.483 9.46553C13.5364 9.46553 15.2071 11.1362 15.2071 13.1897Z" fill="#2C96B3"/>
<path d="M5.75856 11.3276H4.65518V9.13943C6.90611 8.97921 8.68965 7.10134 8.68965 4.81032C8.68965 2.41452 6.74058 0.465454 4.34479 0.465454C1.94899 0.465454 0 2.4146 0 4.81032C0 7.10134 1.78362 8.97921 4.03447 9.13943V11.3276H2.94829C2.77693 11.3276 2.63798 11.4666 2.63798 11.6379C2.63798 11.8093 2.77693 11.9482 2.94829 11.9482H4.03447V12.8793C4.03447 13.0506 4.17342 13.1896 4.34479 13.1896C4.51615 13.1896 4.6551 13.0506 4.6551 12.8793V11.9482H5.75841C5.92977 11.9482 6.06872 11.8093 6.06872 11.6379C6.06872 11.4666 5.92992 11.3276 5.75856 11.3276ZM4.34486 8.53447C2.29141 8.53447 0.620706 6.86377 0.620706 4.81032C0.620706 2.75686 2.29141 1.08616 4.34486 1.08616C6.39831 1.08616 8.06902 2.75686 8.06902 4.81032C8.06902 6.86377 6.39831 8.53447 4.34486 8.53447Z" fill="#2C96B3"/>
</svg>
