<svg width="18" height="18" viewBox="0 0 18 18" fill="none" xmlns="http://www.w3.org/2000/svg">
<path d="M15.8906 4.21875H13.2188C13.2188 1.8888 11.3299 0 9 0C6.67005 0 4.78125 1.8888 4.78125 4.21875H2.10938C0.944402 4.21875 0 5.16315 0 6.32812V15.8906C0 17.0556 0.944402 18 2.10938 18H15.8906C17.0556 18 18 17.0556 18 15.8906V6.32812C18 5.16315 17.0556 4.21875 15.8906 4.21875ZM9 2.10938C10.165 2.10938 11.1094 3.05378 11.1094 4.21875H6.89062C6.89062 3.05378 7.83503 2.10938 9 2.10938ZM14.1328 9.14062V9.84375C14.1328 10.4263 13.6606 10.8984 13.0781 10.8984C12.4956 10.8984 12.0234 10.4263 12.0234 9.84375V9.14062H5.97656V9.84375C5.97656 10.4263 5.50438 10.8984 4.92188 10.8984C4.33937 10.8984 3.86719 10.4263 3.86719 9.84375V9.14062C3.28468 9.14062 2.8125 8.66844 2.8125 8.08594C2.8125 7.50343 3.28468 7.03125 3.86719 7.03125H14.1328C14.7153 7.03125 15.1875 7.50343 15.1875 8.08594C15.1875 8.66844 14.7153 9.14062 14.1328 9.14062Z" fill="#2C96B3"/>
</svg>
