<svg width="18" height="16" viewBox="0 0 18 16" fill="none" xmlns="http://www.w3.org/2000/svg">
<path d="M7.55684 3.74539H16.8397C17.4805 3.74539 18 3.22586 18 2.58503C18 1.94421 17.4805 1.42468 16.8397 1.42468H7.55684C6.91601 1.42468 6.39648 1.94421 6.39648 2.58503C6.39648 3.22586 6.91594 3.74539 7.55684 3.74539Z" fill="#2C96B3"/>
<path d="M16.8397 6.83972H7.55684C6.91601 6.83972 6.39648 7.35925 6.39648 8.00007C6.39648 8.6409 6.91601 9.16042 7.55684 9.16042H16.8397C17.4805 9.16042 18 8.6409 18 8.00007C18 7.35925 17.4805 6.83972 16.8397 6.83972Z" fill="#2C96B3"/>
<path d="M16.8397 12.2546H7.55684C6.91601 12.2546 6.39648 12.7742 6.39648 13.415C6.39648 14.0558 6.91601 14.5753 7.55684 14.5753H16.8397C17.4805 14.5753 18 14.0558 18 13.415C18 12.7742 17.4805 12.2546 16.8397 12.2546Z" fill="#2C96B3"/>
<path d="M3.77394 7.07666L3.00122 6.96434L2.65567 6.2641C2.55789 6.06607 2.3563 5.94067 2.13537 5.94067C1.91459 5.94067 1.71285 6.06607 1.61507 6.2641L1.26944 6.96434L0.496797 7.07666C0.278264 7.10837 0.0966305 7.26146 0.0284018 7.47149C-0.0398269 7.68151 0.0171077 7.91203 0.175148 8.06621L0.734283 8.61119L0.602235 9.38081C0.564871 9.59849 0.654373 9.81849 0.83299 9.9483C0.934095 10.0218 1.05369 10.0591 1.17406 10.0591C1.26634 10.0591 1.35909 10.0371 1.44395 9.99255L2.13521 9.62912L2.82647 9.99255C2.91141 10.0372 3.00409 10.0591 3.09637 10.0591C3.09691 10.0591 3.09753 10.0591 3.098 10.0591C3.41841 10.0591 3.6781 9.79939 3.6781 9.47897C3.6781 9.43032 3.67214 9.38297 3.66085 9.3378L3.53615 8.61119L4.09528 8.06621C4.25348 7.91203 4.31033 7.68151 4.2421 7.47149C4.17411 7.26146 3.99247 7.10837 3.77394 7.07666Z" fill="#2C96B3"/>
<path d="M3.77394 1.66174L3.00122 1.54942L2.65567 0.849186C2.55789 0.651152 2.3563 0.525757 2.13537 0.525757C1.91459 0.525757 1.71285 0.651152 1.61507 0.849186L1.26944 1.54942L0.496797 1.66174C0.278264 1.69346 0.0966305 1.84655 0.0284018 2.05657C-0.0398269 2.26659 0.0171077 2.49712 0.175148 2.65129L0.734283 3.19627L0.602235 3.96589C0.564871 4.18357 0.654373 4.40358 0.83299 4.53338C0.934095 4.60687 1.05369 4.64423 1.17406 4.64423C1.26634 4.64423 1.35909 4.62219 1.44395 4.57763L2.13521 4.21421L2.82647 4.57763C2.91141 4.62226 3.00409 4.64423 3.09637 4.64423C3.09691 4.64423 3.09753 4.64423 3.098 4.64423C3.41841 4.64423 3.6781 4.38447 3.6781 4.06406C3.6781 4.0154 3.67214 3.96806 3.66085 3.92288L3.53615 3.19627L4.09528 2.65129C4.25348 2.49712 4.31033 2.26659 4.2421 2.05657C4.17411 1.84655 3.99247 1.69346 3.77394 1.66174Z" fill="#2C96B3"/>
<path d="M3.77394 12.4917L3.00122 12.3794L2.65567 11.6791C2.55789 11.4811 2.3563 11.3557 2.13537 11.3557C1.91459 11.3557 1.71285 11.4811 1.61507 11.6791L1.26944 12.3794L0.496797 12.4917C0.278264 12.5234 0.0966305 12.6765 0.0284018 12.8865C-0.0398269 13.0965 0.0171077 13.3271 0.175148 13.4812L0.734283 14.0262L0.602235 14.7958C0.564871 15.0135 0.654373 15.2335 0.83299 15.3633C0.934095 15.4368 1.05369 15.4742 1.17406 15.4742C1.26634 15.4742 1.35909 15.4521 1.44395 15.4076L2.13521 15.0442L2.82647 15.4076C2.91141 15.4522 3.00409 15.4742 3.09637 15.4742C3.09691 15.4742 3.09753 15.4742 3.098 15.4742C3.41841 15.4741 3.6781 15.2144 3.6781 14.894C3.6781 14.8454 3.67214 14.798 3.66085 14.7528L3.53615 14.0262L4.09528 13.4812C4.25348 13.3271 4.31033 13.0965 4.2421 12.8865C4.17411 12.6765 3.99247 12.5234 3.77394 12.4917Z" fill="#2C96B3"/>
</svg>
